<?xml version="1.0" encoding="UTF-8"?>
<svg version="1.1" xmlns="http://www.w3.org/2000/svg" width="512" height="512">
<path d="M0 0 C1.74700862 -0.00570922 3.49401351 -0.01267562 5.24101257 -0.02079773 C9.96632828 -0.03868414 14.69145782 -0.03756916 19.41679716 -0.03185534 C23.37038264 -0.02875666 27.32393272 -0.03486356 31.27751315 -0.04089409 C40.60935535 -0.05492315 49.94110598 -0.05339178 59.27294922 -0.04199219 C68.8802372 -0.03051501 78.4872459 -0.04458363 88.09449708 -0.07138866 C96.36146864 -0.09358533 104.62835278 -0.10017404 112.89535201 -0.09431225 C117.82469538 -0.09095066 122.7538598 -0.09330442 127.68317795 -0.11056328 C132.32085754 -0.12609347 136.95812527 -0.12200985 141.59578896 -0.10325813 C143.29081077 -0.09958888 144.98586352 -0.10263181 146.6808567 -0.11314392 C158.50070498 -0.18081179 168.72494348 0.8615274 178.53369141 8.15405273 C179.38576172 8.76764648 180.23783203 9.38124023 181.11572266 10.01342773 C188.1035145 16.42501485 192.04011055 24.55236797 196.12901497 32.9801712 C197.15162596 35.08644499 198.18532912 37.18694486 199.22203064 39.28631592 C202.16405785 45.24931712 205.08513434 51.22251414 208.00170898 57.19799805 C209.79452576 60.86918698 211.59908865 64.53441234 213.41061211 68.1964035 C214.0950355 69.58631694 214.77478851 70.97854071 215.44966316 72.37311554 C216.39261872 74.32162449 217.35025106 76.26225996 218.3112793 78.2019043 C218.85055557 79.30584534 219.38983185 80.40978638 219.94544983 81.54718018 C222.53377313 85.71136144 225.88954627 88.202963 230.26708984 90.30761719 C231.24400787 90.78380241 231.24400787 90.78380241 232.24066162 91.26960754 C232.9303302 91.59885727 233.61999878 91.92810699 234.33056641 92.26733398 C235.82285938 92.996936 237.31504342 93.72676086 238.80712891 94.45678711 C241.133132 95.58581278 243.46066143 96.71148615 245.79052734 97.83251953 C261.03395427 105.18700334 273.81923281 112.46876452 279.99462891 129.14233398 C281.46733688 133.72673139 281.85632838 137.63607984 281.88232422 142.49243164 C281.88728912 143.19871704 281.89225403 143.90500244 281.89736938 144.63269043 C281.91195142 146.96534205 281.91878814 149.29792555 281.92431641 151.63061523 C281.93007329 153.26004029 281.93583095 154.88946533 281.94158936 156.51889038 C281.95208961 159.93683181 281.95793794 163.3547498 281.96142578 166.77270508 C281.96689341 171.13020188 281.99088822 175.48738351 282.01939774 179.84478188 C282.03812397 183.21305207 282.0432351 186.58124806 282.04476166 189.94956589 C282.04776874 191.55456633 282.05573075 193.15956608 282.06894684 194.76451492 C282.18562235 210.02921078 279.70677844 222.05079124 269.09619141 233.65405273 C259.64578074 242.58044445 247.64231644 245.77593489 234.96728516 245.59936523 C234.18096207 245.59653534 233.39463898 245.59370544 232.58448792 245.59078979 C230.10905782 245.57972563 227.63400942 245.55464865 225.15869141 245.52905273 C223.46533731 245.51900508 221.77197746 245.50988238 220.07861328 245.50170898 C215.95932887 245.47983171 211.84032451 245.44539991 207.72119141 245.40405273 C207.57875 246.18111572 207.43630859 246.95817871 207.28955078 247.75878906 C204.60289997 260.26302514 191.86957215 271.56724886 181.72119141 278.40405273 C178.15203978 280.39324609 174.54310361 281.96675242 170.72119141 283.40405273 C169.54943359 283.88358398 169.54943359 283.88358398 168.35400391 284.37280273 C152.59304155 289.81109006 134.33343575 287.18548006 119.65869141 280.21655273 C112.99420815 276.95959361 108.8738227 273.32615777 102.72119141 268.40405273 C102.39119141 284.57405273 102.06119141 300.74405273 101.72119141 317.40405273 C104.69119141 318.39405273 107.66119141 319.38405273 110.72119141 320.40405273 C112.61904432 321.14690293 114.50781438 321.91377901 116.38256836 322.71313477 C117.39845535 323.14433624 118.41434235 323.57553772 119.46101379 324.01980591 C120.53300522 324.47918549 121.60499664 324.93856506 122.70947266 325.41186523 C123.84789108 325.89678436 124.98630951 326.38170349 126.15922546 326.88131714 C128.56446929 327.90674425 130.96898195 328.93388789 133.37280273 329.96264648 C136.98260594 331.50719449 140.59484304 333.04592674 144.20751953 334.58374023 C151.05463055 337.50264439 157.89073522 340.44640673 164.72119141 343.40405273 C166.21292877 344.04763733 166.21292877 344.04763733 167.73480225 344.70422363 C170.45747853 345.88313357 173.17424736 347.07457849 175.88916016 348.27124023 C176.66109207 348.60447296 177.43302399 348.93770569 178.22834778 349.28103638 C193.91271585 356.26996838 203.48628137 366.5248811 209.72119141 382.40405273 C213.42705893 393.68724877 212.89644994 405.77508166 212.92431641 417.50561523 C212.92714378 418.31390148 212.92997116 419.12218773 212.93288422 419.9549675 C212.94778048 424.22413194 212.95707293 428.49326336 212.96142578 432.76245117 C212.96692783 437.15135759 212.99101955 441.53995653 213.01939774 445.92876625 C213.0380728 449.32610962 213.04323208 452.72337915 213.04476166 456.1207695 C213.04777257 457.73858718 213.05574787 459.35640405 213.06894684 460.97417068 C213.18931889 476.84683374 213.18931889 476.84683374 209.72119141 483.40405273 C205.01684417 487.87891961 201.85685386 488.55287358 195.57366943 488.55122375 C194.8289039 488.55490044 194.08413836 488.55857713 193.31680417 488.56236523 C190.80803835 488.57342467 188.29931392 488.57724973 185.79052734 488.58105469 C183.99703336 488.58731765 182.20354068 488.5939643 180.41004944 488.60096741 C175.52769383 488.618393 170.64534803 488.62893347 165.76296902 488.63717294 C162.71389787 488.64231992 159.66482979 488.6483958 156.6157608 488.65468407 C147.07966129 488.67374072 137.54356954 488.6879707 128.00745463 488.69629604 C116.99278527 488.7060704 105.97831676 488.73239317 94.96371818 488.77279693 C86.45494786 488.80293965 77.94623518 488.81776317 69.4374125 488.82107705 C64.35328282 488.8234297 59.2693676 488.83241795 54.1852951 488.85753822 C49.40166362 488.8807916 44.61838821 488.88506319 39.83471489 488.87477684 C38.07953394 488.8742807 36.32433563 488.8806242 34.56920815 488.89433289 C32.17126061 488.91201344 29.77459623 488.90496544 27.37664795 488.89179993 C26.33684457 488.9082538 26.33684457 488.9082538 25.27603507 488.92504007 C17.6625856 488.82424898 13.36751242 484.3190378 8.28369141 479.15405273 C7.56330688 478.42400024 7.56330688 478.42400024 6.82836914 477.67919922 C3.63427695 474.41631285 0.62240328 471.03752306 -2.33740234 467.56420898 C-4.87990583 464.73522624 -7.573383 462.07635404 -10.27880859 459.40405273 C-14.17776543 455.55283336 -17.88705157 451.63983545 -21.43896484 447.46264648 C-23.78375923 444.8390655 -26.27511428 442.37415169 -28.77880859 439.90405273 C-31.87371992 436.8506699 -34.89815116 433.78081612 -37.71630859 430.46655273 C-41.2132276 426.36293934 -45.03265144 422.62255637 -48.86523438 418.8371582 C-52.31108002 415.4173599 -55.56375149 411.89718455 -58.70068359 408.18920898 C-60.32471771 406.35212089 -62.0526466 404.70495126 -63.84130859 403.02905273 C-73.02356257 393.88797479 -77.38291594 381.71777844 -77.77880859 368.90405273 C-77.36126027 354.93778126 -72.02857847 342.72324928 -62.57958984 332.54467773 C-52.2456983 322.93012329 -39.68263163 318.81367386 -25.73974609 319.01733398 C-15.22484874 320.19224915 -7.54390547 327.29502553 0.00634766 334.11108398 C4.78912149 338.35070369 9.77456269 342.35681106 14.72119141 346.40405273 C15.05119141 313.07405273 15.38119141 279.74405273 15.72119141 245.40405273 C6.15119141 245.73405273 -3.41880859 246.06405273 -13.27880859 246.40405273 C-15.25880859 250.36405273 -17.23880859 254.32405273 -19.27880859 258.40405273 C-28.59622933 272.34714335 -42.66308658 282.25608572 -59.06445312 286.04223633 C-77.33475582 289.02752724 -95.07034219 286.09849444 -110.27880859 275.40405273 C-119.9918039 267.78137206 -127.5658524 258.89324087 -132.27880859 247.40405273 C-132.27880859 246.74405273 -132.27880859 246.08405273 -132.27880859 245.40405273 C-133.18421387 245.42761841 -133.18421387 245.42761841 -134.10791016 245.45166016 C-151.96264868 245.8549744 -166.54034828 245.38663137 -180.46630859 232.90405273 C-188.34825736 224.62159844 -192.37486941 213.94973268 -192.43994141 202.66113281 C-192.44738876 201.67463745 -192.44738876 201.67463745 -192.45498657 200.66821289 C-192.46952946 198.50332571 -192.47639814 196.33851189 -192.48193359 194.17358398 C-192.48476097 193.42940405 -192.48758835 192.68522411 -192.4905014 191.91849327 C-192.50546479 187.97772241 -192.51471133 184.03698786 -192.51904297 180.09619141 C-192.5245132 176.04923077 -192.54851851 172.00260903 -192.57701492 167.95575428 C-192.59575158 164.82339039 -192.6008528 161.69110619 -192.60237885 158.55869102 C-192.60538276 157.0681238 -192.61333369 155.5775572 -192.62656403 154.08704567 C-192.74667746 139.51105417 -190.24077089 127.61264435 -180.02880859 116.65405273 C-173.76015942 110.88635393 -167.22521895 107.43675657 -159.00146484 105.23217773 C-158.24436218 105.02553497 -157.48725952 104.81889221 -156.70721436 104.60598755 C-141.39255799 100.49477304 -125.92946711 96.90286807 -110.51367188 93.19165039 C-106.85392892 92.31025849 -103.19596158 91.42179934 -99.53900909 90.52890396 C-98.16024766 90.19373247 -96.78083515 89.86122666 -95.40074921 89.53155136 C-93.47926606 89.07237511 -91.56013432 88.60339297 -89.64111328 88.1340332 C-88.55401062 87.87153778 -87.46690796 87.60904236 -86.34686279 87.33859253 C-80.86665286 85.66930185 -77.11847218 84.11384159 -74.28979492 78.99389648 C-73.79355621 78.10299316 -73.2973175 77.21208984 -72.78604126 76.29418945 C-70.1416073 71.22345561 -67.59392862 66.11438233 -65.10302734 60.96655273 C-64.23258222 59.19233509 -63.3621164 57.41812728 -62.49049854 55.64448547 C-60.37025118 51.32861638 -58.25736919 47.00930793 -56.16381836 42.68041992 C-54.98075874 40.2353416 -53.78888321 37.7949434 -52.58735657 35.35888672 C-51.46545398 33.08359431 -50.35584873 30.80217898 -49.26115417 28.51367188 C-43.29078576 16.49196015 -35.11233438 7.23815686 -22.70053101 1.85093689 C-15.37409589 -0.53339708 -7.61772682 -0.02250419 0 0 Z M-17.41021729 35.74569702 C-19.27968167 38.40529482 -20.74991531 41.01825558 -22.17626953 43.93774414 C-22.71072693 45.02302399 -23.24518433 46.10830383 -23.7958374 47.22647095 C-24.64592377 48.97339737 -24.64592377 48.97339737 -25.51318359 50.75561523 C-26.11523839 51.97806015 -26.71813882 53.20008892 -27.32183838 54.42172241 C-29.8705938 59.58297804 -32.40475505 64.75133995 -34.93212891 69.9230957 C-36.48411296 73.0974114 -38.04636213 76.26651379 -39.61444855 79.43290329 C-40.48612933 81.20074685 -41.3462534 82.97427414 -42.20599365 84.74795532 C-48.35924101 97.16761034 -55.07222569 108.43341709 -68.48434448 113.65109253 C-77.31515826 116.5773659 -86.18295396 119.0179382 -95.2312355 121.17453384 C-97.60456758 121.74057038 -99.97566254 122.31527836 -102.34640503 122.89205933 C-108.21862474 124.3191563 -114.0937732 125.73400177 -119.9697876 127.14538574 C-124.97479289 128.34763431 -129.9781206 129.5564126 -134.97921371 130.77483749 C-137.30697308 131.33914745 -139.63692023 131.89369299 -141.96707153 132.44802856 C-143.3941902 132.79499038 -144.82118869 133.14244702 -146.24804688 133.49047852 C-148.10878342 133.93751633 -148.10878342 133.93751633 -150.0071106 134.39358521 C-154.35352973 135.73598154 -157.35429303 137.11633463 -160.02880859 140.84155273 C-162.01191668 144.90692431 -162.40598877 148.30446237 -162.42407227 152.81176758 C-162.43045212 153.89324066 -162.43683197 154.97471375 -162.44340515 156.08895874 C-162.44451797 157.25254913 -162.4456308 158.41613953 -162.44677734 159.61499023 C-162.45010574 160.81588287 -162.45343414 162.01677551 -162.4568634 163.25405884 C-162.46192584 165.79428728 -162.46427194 168.33452238 -162.46411133 170.87475586 C-162.4662962 174.75702906 -162.48445507 178.63901737 -162.50341797 182.52124023 C-162.50635235 184.98998926 -162.50833685 187.45873964 -162.50927734 189.92749023 C-162.51646286 191.08703217 -162.52364838 192.2465741 -162.53105164 193.44125366 C-162.5480917 203.09421095 -162.5480917 203.09421095 -157.77880859 211.21655273 C-153.52291643 214.94045838 -150.08414151 214.52385333 -144.65380859 214.46655273 C-143.45111328 214.45978516 -143.45111328 214.45978516 -142.22412109 214.45288086 C-140.24231853 214.44108442 -138.26055426 214.42314878 -136.27880859 214.40405273 C-135.99908203 213.39987305 -135.71935547 212.39569336 -135.43115234 211.36108398 C-130.20023172 193.23999865 -121.97125627 178.24831675 -105.27880859 168.40405273 C-89.74541057 159.90814055 -71.59349872 157.70346414 -54.46630859 162.30639648 C-43.72071412 166.0067789 -35.17741874 171.2643719 -27.27880859 179.40405273 C-26.63298828 180.04084961 -25.98716797 180.67764648 -25.32177734 181.33374023 C-16.41780651 190.68387954 -13.21876125 202.1919417 -10.27880859 214.40405273 C-1.69880859 214.40405273 6.88119141 214.40405273 15.72119141 214.40405273 C16.52556641 211.06280273 16.52556641 211.06280273 17.34619141 207.65405273 C20.5613628 195.28333661 25.46815006 184.94732488 36.32666016 177.65405273 C46.84642824 171.48166413 56.71388669 170.35856056 68.72119141 172.40405273 C78.74084661 175.38609297 87.45302149 180.18475539 92.72119141 189.40405273 C96.11945888 188.27129691 96.51607168 187.62386178 98.47119141 184.77905273 C107.8812289 171.91179952 120.91860144 163.99609557 136.57666016 160.82592773 C155.51714472 158.28484409 173.20825755 162.09016455 188.65478516 173.58764648 C200.93956838 183.96411387 206.68351362 196.1726343 210.72119141 211.40405273 C211.05119141 212.39405273 211.38119141 213.38405273 211.72119141 214.40405273 C216.02614156 214.50340362 220.33047323 214.57574541 224.63623047 214.6237793 C226.09891392 214.64381606 227.56151806 214.67105377 229.02392578 214.70581055 C231.1341515 214.75468498 233.24331276 214.77709933 235.35400391 214.79467773 C236.62131348 214.815625 237.88862305 214.83657227 239.19433594 214.8581543 C243.3747624 214.31990196 245.47208783 213.04167942 248.72119141 210.40405273 C251.73075786 205.88970305 251.84643971 201.8659474 251.86645508 196.53149414 C251.87283493 195.37324127 251.87921478 194.2149884 251.88578796 193.02163696 C251.88690079 191.77884979 251.88801361 190.53606262 251.88916016 189.25561523 C251.89248856 187.96972504 251.89581696 186.68383484 251.89924622 185.35897827 C251.90522119 182.64059612 251.9070878 179.92224568 251.90649414 177.20385742 C251.90639261 173.73510234 251.9200425 170.26655237 251.93726635 166.79784584 C251.95111507 163.47126615 251.9504765 160.14472335 251.95166016 156.81811523 C251.96243843 154.96000717 251.96243843 154.96000717 251.97343445 153.06436157 C252.25493315 142.46264038 252.25493315 142.46264038 247.07788086 133.71411133 C243.62474987 131.15429811 239.88845353 129.27744733 236.01416016 127.44311523 C234.52519276 126.71662468 233.03626161 125.99005983 231.54736328 125.26342773 C229.23205178 124.14601168 226.91509582 123.03212339 224.59692383 121.9206543 C205.93478944 112.94247182 196.55680567 103.89918551 187.39283371 84.986866 C186.40806313 82.95598465 185.41200503 80.93098519 184.41299438 78.90707397 C181.57927191 73.16089582 178.76675576 67.40440886 175.95849609 61.64575195 C174.22936658 58.10193457 172.48848737 54.56408564 170.74065018 51.02946091 C170.08133995 49.68978857 169.42669952 48.347807 168.77695847 47.00346756 C167.87003793 45.1270158 166.94843871 43.25845902 166.0234375 41.39086914 C165.50494232 40.3284903 164.98644714 39.26611145 164.45223999 38.17153931 C162.18863639 34.55263881 159.52843276 32.30767341 155.72119141 30.40405273 C153.55340997 30.30318698 151.38244633 30.2689204 149.21232605 30.26361084 C148.53627534 30.26063972 147.86022462 30.2576686 147.16368753 30.25460744 C144.88751433 30.24590276 142.61139362 30.2444107 140.33520508 30.24291992 C138.70757433 30.23829298 137.07994467 30.23326848 135.45231628 30.22787476 C131.02248862 30.21473634 126.59267613 30.20830293 122.16283202 30.2038641 C119.39652473 30.20093553 116.6302216 30.19683113 113.8639164 30.19235992 C105.21254851 30.17868084 96.56119011 30.16901635 87.90981215 30.16515803 C77.91620304 30.16067692 67.92273068 30.14312832 57.92916316 30.11415744 C50.2093605 30.09255346 42.48959634 30.08245443 34.76976377 30.08111691 C30.15686722 30.08006791 25.54409914 30.07413995 20.93123436 30.0562973 C16.59168203 30.03983891 12.25235505 30.0376502 7.91278267 30.04643631 C6.32005587 30.0472079 4.72731707 30.0428479 3.13462067 30.03297806 C0.95981374 30.02029146 -1.2141911 30.02611675 -3.38899231 30.03656006 C-5.21439403 30.03436022 -5.21439403 30.03436022 -7.07667255 30.03211594 C-11.75138985 30.57509705 -14.28484053 32.31204272 -17.41021729 35.74569702 Z M-96.57568359 199.55249023 C-103.6283843 207.09424682 -106.66139996 214.59629331 -106.48974609 224.94702148 C-105.70732861 234.06073624 -101.88949796 242.36577889 -94.98193359 248.41577148 C-86.68108005 254.56407449 -78.64999941 257.55109688 -68.27880859 256.40405273 C-58.79218755 254.67659518 -51.58072434 249.87503974 -45.59912109 242.35717773 C-39.92943742 233.97007171 -39.20767208 225.35032039 -40.27880859 215.40405273 C-41.15327157 212.03393139 -42.4240006 209.3393875 -44.27880859 206.40405273 C-44.91496094 205.35991211 -44.91496094 205.35991211 -45.56396484 204.29467773 C-51.251063 195.86700024 -59.16845965 191.64683557 -68.96630859 189.65405273 C-79.62345776 188.57818815 -88.84715831 192.32342747 -96.57568359 199.55249023 Z M122.72119141 201.40405273 C115.88177124 210.45090481 114.81424951 219.21843602 115.72119141 230.40405273 C117.37882233 238.14665796 121.71383649 244.3268689 127.72119141 249.40405273 C136.22862262 254.59576717 143.7477389 257.39720158 153.72119141 256.40405273 C164.06377278 253.89371745 171.86939688 248.92812312 177.46728516 239.82202148 C182.14321694 230.80519353 183.26928038 221.64145532 180.28369141 211.90405273 C176.28392641 202.05097311 169.23165726 195.75065963 159.63525391 191.46264648 C146.36084857 186.64044294 132.23648718 191.28534796 122.72119141 201.40405273 Z M50.72119141 204.40405273 C46.68264472 210.66515532 45.59634977 216.51515831 45.59661865 223.91181946 C45.59405563 225.22815369 45.59149261 226.54448792 45.58885193 227.90071106 C45.59092167 229.35275276 45.59304442 230.80479438 45.59521484 232.25683594 C45.59381933 233.79137219 45.59191952 235.32590805 45.58955383 236.86044312 C45.5850632 240.16161216 45.58320089 243.46276879 45.58309174 246.76394081 C45.58194953 251.98793806 45.5690976 257.21186494 45.55352783 262.43583679 C45.55095498 263.3182831 45.54838212 264.2007294 45.54573131 265.10991651 C45.54046494 266.91418526 45.53517946 268.71845396 45.52987528 270.5227226 C45.49479274 282.68101233 45.46821362 294.839214 45.47070312 306.99755859 C45.4722931 315.20398582 45.4562253 323.41017239 45.4199965 331.61652249 C45.40156063 335.95623159 45.39217295 340.29553897 45.40447235 344.6352787 C45.41593451 348.71900102 45.40414665 352.80200464 45.37483788 356.88563156 C45.36821463 358.38032801 45.37003443 359.87509062 45.38113594 361.36976051 C45.48415984 376.50146201 45.48415984 376.50146201 39.72119141 382.40405273 C34.17427364 385.91332724 29.23805807 386.92126437 22.72119141 386.40405273 C6.29915764 382.69843148 -7.53427586 368.51969494 -19.54443359 357.38452148 C-24.49115329 352.66145681 -24.49115329 352.66145681 -30.55615234 349.79858398 C-35.17461543 350.03792852 -38.60390425 352.65169099 -41.80224609 355.74780273 C-46.22699685 360.71101522 -46.63682217 365.21588261 -46.77490234 371.62280273 C-45.5973248 378.22465478 -40.0591297 383.01791725 -35.59130859 387.71655273 C-34.9698999 388.3766333 -34.34849121 389.03671387 -33.70825195 389.71679688 C-29.62115657 394.04134768 -25.446964 398.26674942 -21.20849609 402.44311523 C-19.37374833 404.30757551 -17.66350431 406.22701709 -15.96630859 408.21655273 C-12.90380655 411.79304114 -9.62600243 415.09794766 -6.27880859 418.40405273 C-2.40151663 422.2339233 1.28362757 426.12456587 4.81494141 430.27905273 C7.83775574 433.6487474 11.0858501 436.78886972 14.30566406 439.96899414 C17.7097978 443.34736339 20.94852058 446.80724994 24.02587891 450.48999023 C24.58533203 451.12163086 25.14478516 451.75327148 25.72119141 452.40405273 C26.44811188 453.41948151 27.17503235 454.43491028 27.92398071 455.48110962 C32.01862138 459.50919329 36.49705559 459.11493043 41.98690796 459.15057373 C43.38190559 459.12934292 44.77689452 459.10753412 46.171875 459.08520508 C47.65057303 459.08351143 49.12927609 459.08446498 50.60797119 459.08786011 C54.61206505 459.08957871 58.61507624 459.05435217 62.6189189 459.01241636 C66.80689443 458.974859 70.99489595 458.97138008 75.18301392 458.96426392 C83.10914647 458.94562967 91.03478133 458.89641224 98.96069491 458.83616698 C107.98598488 458.76905732 117.01129886 458.73610169 126.0367763 458.70599437 C144.59852997 458.64331165 163.15982064 458.5378046 181.72119141 458.40405273 C181.79099331 450.60613032 181.84415484 442.80828241 181.87662792 435.01012516 C181.89222089 431.38831026 181.91334093 427.7667106 181.94750977 424.14501953 C181.9803329 420.64367523 181.9980922 417.14253673 182.00582314 413.64105034 C182.01398646 411.66867656 182.03736852 409.69638448 182.06108093 407.72413635 C182.06285342 398.17629013 181.01486139 389.95548813 174.72119141 382.40405273 C171.76517624 380.36839697 171.76517624 380.36839697 168.18603516 378.76733398 C167.16086037 378.27672234 167.16086037 378.27672234 166.11497498 377.77619934 C154.65848427 372.38084904 142.94013196 367.53345023 131.28369141 362.59155273 C122.93228371 359.04078607 114.58591569 355.47852595 106.2444458 351.90447998 C102.68316647 350.38785928 99.11271434 348.89447994 95.54101562 347.40258789 C93.27659438 346.44145147 91.01242327 345.47972549 88.74853516 344.51733398 C87.70830704 344.09002487 86.66807892 343.66271576 85.59632874 343.22245789 C79.85385799 340.75690128 76.07658785 338.76490312 72.72119141 333.40405273 C71.86158229 330.04734937 71.59506038 326.90925019 71.58988953 323.45280457 C71.58588135 322.48145065 71.58187317 321.51009674 71.57774353 320.50930786 C71.57827225 319.45516693 71.57880096 318.401026 71.5793457 317.31494141 C71.57587128 316.19564743 71.57239685 315.07635345 71.56881714 313.92314148 C71.56147078 311.49449852 71.55611943 309.0658489 71.55252647 306.63719749 C71.54535225 302.7909795 71.52967865 298.94488843 71.51118469 295.09870911 C71.45875761 284.16364357 71.41030249 273.22864638 71.39526367 262.29345703 C71.38596775 255.6026419 71.3558385 248.91219329 71.31394386 242.22149086 C71.30164009 239.67428323 71.29651145 237.1270303 71.29874229 234.57979393 C71.30109743 231.01329746 71.27891119 227.44771986 71.2512207 223.88134766 C71.25782211 222.83327942 71.26442352 221.78521118 71.27122498 220.7053833 C71.1918124 214.4644719 70.37811059 209.58487597 66.72119141 204.40405273 C63.93722094 202.05965655 62.31927372 201.47881302 58.72119141 201.02905273 C55.12310909 201.47881302 53.50516187 202.05965655 50.72119141 204.40405273 Z " fill="#F9C805" transform="translate(211.27880859375,11.595947265625)"/>
<path d="M0 0 C1.20780624 -0.0071553 2.41561249 -0.01431061 3.66001892 -0.02168274 C6.94328229 -0.03560531 10.22550851 -0.02735517 13.50871325 -0.00759244 C16.96027453 0.00891099 20.41178852 -0.00003461 23.8633728 -0.00511169 C29.65497828 -0.00961851 35.44625929 0.00615181 41.23779297 0.03417969 C47.91700497 0.06625584 54.59563312 0.0661997 61.27488673 0.04896492 C67.72490045 0.03306047 74.17470175 0.03985646 80.62470627 0.05690193 C83.35899952 0.06374308 86.09312099 0.06277057 88.82741165 0.05535698 C92.64962969 0.04989508 96.47086297 0.07031292 100.29296875 0.09765625 C101.41733841 0.09113037 102.54170807 0.08460449 103.70014954 0.07788086 C111.76322176 0.1757505 117.02639461 1.77508014 123.26708984 6.88110352 C129.17879026 14.10651513 131.77640244 23.43429047 134.89086914 32.11401367 C135.70821479 34.39120291 136.53294738 36.66561257 137.35888672 38.93969727 C137.88470727 40.39396897 138.41011275 41.84839084 138.93505859 43.30297852 C139.17983444 43.97907166 139.42461029 44.65516479 139.67680359 45.35174561 C142.57034892 53.43107964 143.97446211 60.53470627 140.56005859 68.67797852 C137.15439034 75.05563442 132.67651593 79.02777435 125.71010113 81.1926384 C122.95532485 81.74342139 120.36435685 81.76366799 117.5539093 81.77154541 C116.33295059 81.77725555 115.11199188 81.7829657 113.85403442 81.78884888 C112.50384532 81.79009415 111.15365609 81.79121927 109.8034668 81.79223633 C108.37907279 81.79686661 106.95468003 81.80189155 105.5302887 81.80728149 C101.66227649 81.82038931 97.79428164 81.82684756 93.9262507 81.83129215 C91.5073163 81.83422616 89.0883866 81.83833164 86.66945457 81.84279633 C79.09450023 81.85646846 71.51955669 81.86613589 63.94459087 81.86999822 C55.21318451 81.87447511 46.481935 81.89200699 37.75057632 81.92099881 C30.99371978 81.94265205 24.23690725 81.95270448 17.48001641 81.95403934 C13.44828424 81.95508498 9.41669955 81.96094098 5.38500404 81.97885895 C1.58875675 81.99540225 -2.20723318 81.99746502 -6.0035038 81.98871994 C-7.39137082 81.98795284 -8.77925203 81.99224891 -10.16708374 82.00217819 C-19.0394131 82.06189619 -26.4928114 81.57979824 -34.23291016 77.00610352 C-40.11628985 70.7958694 -42.12863804 65.15390756 -41.9753418 56.62402344 C-41.30077453 49.1198056 -38.34274929 41.96904525 -35.77612305 34.94506836 C-34.79254014 32.24823436 -33.84366645 29.54097679 -32.89892578 26.83032227 C-32.27917695 25.08872529 -31.65749854 23.3478135 -31.03369141 21.60766602 C-30.75326492 20.80962555 -30.47283844 20.01158508 -30.18391418 19.18936157 C-27.03449097 10.65692826 -23.7275156 5.66989445 -15.37558842 1.67199326 C-10.29664864 -0.15559206 -5.34700597 -0.05580387 0 0 Z M-1.48291016 30.63110352 C-5.58341509 40.45251615 -5.58341509 40.45251615 -7.48291016 50.63110352 C30.46708984 50.63110352 68.41708984 50.63110352 107.51708984 50.63110352 C105.61902475 41.17085196 105.61902475 41.17085196 101.51708984 30.63110352 C67.52708984 30.63110352 33.53708984 30.63110352 -1.48291016 30.63110352 Z " fill="#F9C806" transform="translate(228.48291015625,63.368896484375)"/>
</svg>
